<svg width="40" height="40" viewBox="0 0 40 40" fill="none" xmlns="http://www.w3.org/2000/svg">
<path d="M29.925 0.699997L29.15 0.799997C27.9906 0.946872 27.05 1.41562 26.475 1.75C26.3781 1.80312 26.2469 1.85625 26.175 1.9C26.1687 1.90312 26.1562 1.92187 26.15 1.925C26.0094 2.0125 25.9125 2.09062 25.9 2.1L25.2 2.6L25.75 3.25C25.7562 3.25625 25.8625 3.40625 26.05 3.675C26.0562 3.68437 26.0437 3.69062 26.05 3.7C26.6 4.52187 27.7156 6.34687 27.825 7.975C27.8187 7.99375 27.7937 8.04375 27.75 8.125C27.7344 8.15312 27.7437 8.16875 27.725 8.2C27.6781 8.28437 27.5719 8.40625 27.5 8.525C27.4969 8.53125 27.5031 8.54375 27.5 8.55C27.4969 8.55625 27.5031 8.56875 27.5 8.575C27.4406 8.675 27.3969 8.72812 27.325 8.85C27.2781 8.93125 27.25 9.00937 27.2 9.1C27.1187 9.24687 27.0344 9.40312 26.95 9.575C26.8937 9.68437 26.8562 9.80312 26.8 9.925C26.7625 10.0125 26.7125 10.1062 26.675 10.2C26.6062 10.3625 26.5406 10.5187 26.475 10.7C26.4687 10.7187 26.4562 10.7312 26.45 10.75C26.3594 11.0125 26.2781 11.2969 26.2 11.6L26.175 11.675C26.0656 12.1094 25.925 12.6969 25.7 13.375C25.6187 13.6219 25.5062 13.9031 25.4 14.175C25.3562 14.2875 25.3219 14.3844 25.275 14.5C25.2656 14.525 25.2594 14.55 25.25 14.575C25.2094 14.6719 25.1437 14.775 25.1 14.875C24.7812 15.6 24.3812 16.3687 23.85 17.2C23.7094 17.4187 23.5844 17.65 23.425 17.875C23.3031 18.0469 23.1562 18.225 23.025 18.4C22.9719 18.4687 22.9281 18.5312 22.875 18.6C22.8562 18.625 22.8437 18.65 22.825 18.675C22.6437 18.9031 22.45 19.1437 22.25 19.375C22.2281 19.4 22.1969 19.425 22.175 19.45C21.975 19.6781 21.7719 19.8969 21.55 20.125C21.5375 20.1375 21.5375 20.1625 21.525 20.175C21.2875 20.4187 21.0375 20.6531 20.775 20.9C20.4969 21.1625 20.2062 21.4125 19.9 21.675C19.5844 21.9437 19.2781 22.2094 18.975 22.45C18.9531 22.4687 18.9219 22.4812 18.9 22.5C18.6219 22.7187 18.3687 22.9281 18.1 23.125C18.0531 23.1594 17.9969 23.1906 17.95 23.225C17.4187 23.6125 16.8844 23.975 16.375 24.3C16.3 24.3469 16.2219 24.4031 16.15 24.45C15.1187 25.1 14.125 25.6531 13.1 26.225C12.9375 26.3156 12.7656 26.4344 12.6 26.525C11.3844 27.2062 10.0875 27.9531 8.62499 28.925C8.25936 29.1687 7.88749 29.425 7.49999 29.7C7.17186 29.9312 6.82186 30.1656 6.47499 30.425C6.28436 30.5656 6.09374 30.725 5.89999 30.875C5.64686 31.0687 5.41249 31.2406 5.14999 31.45C5.11249 31.4812 5.08749 31.5187 5.04999 31.55C4.61874 31.8969 4.15936 32.2594 3.69999 32.65C3.58124 32.75 3.46561 32.8875 3.34999 33.05C3.34374 33.0594 3.33124 33.0656 3.32499 33.075C3.26874 33.1531 3.22811 33.2375 3.17499 33.325C3.13436 33.3937 3.09061 33.4531 3.04999 33.525C2.99374 33.6281 2.95624 33.7437 2.89999 33.85C2.78749 34.0719 2.67186 34.275 2.57499 34.5C2.56874 34.5156 2.55624 34.5344 2.54999 34.55C2.49374 34.6812 2.49999 34.6781 2.44999 34.8C2.27499 35.2281 2.12186 35.6187 2.04999 35.825L1.92499 36.175L2.12499 36.5L3.07499 38.05L3.29999 38.15C3.48749 38.2437 3.69999 38.3625 3.92499 38.475C3.96561 38.4937 4.00936 38.5062 4.04999 38.525C4.29061 38.6437 4.53436 38.7469 4.79999 38.85C5.25311 39.0281 5.73749 39.1781 6.22499 39.2C6.27499 39.2031 6.37499 39.2 6.49999 39.2C6.69061 39.2031 6.94374 39.1937 7.32499 39.175C7.33124 39.175 7.34374 39.175 7.34999 39.175C7.37499 39.175 7.42186 39.1781 7.44999 39.175C7.87186 39.1531 8.33749 39.1 8.94999 39.025C9.27186 38.9875 9.62811 38.9344 9.99999 38.875C11.0437 38.7094 12.25 38.4812 13.625 38.1C13.7469 38.0656 13.8781 38.0094 14 37.975C15.0125 37.6812 16.0875 37.325 17.225 36.875C18.925 36.2031 20.7469 35.3344 22.625 34.225C23.1344 33.925 23.6594 33.6125 24.175 33.275C24.2906 33.2 24.4094 33.1281 24.525 33.05C25.1375 32.6406 25.7562 32.1906 26.375 31.725C26.4 31.7062 26.425 31.6937 26.45 31.675C26.7562 31.4437 27.0687 31.1969 27.375 30.95C27.7062 30.6812 28.0437 30.4094 28.375 30.125C28.8375 29.7281 29.2594 29.3219 29.675 28.925C30.0062 28.6094 30.3219 28.3125 30.625 28C30.7 27.9219 30.775 27.8531 30.85 27.775C30.9375 27.6812 31.0156 27.5906 31.1 27.5C31.375 27.2 31.625 26.8969 31.875 26.6C32.1469 26.2781 32.3812 25.9656 32.625 25.65C32.6719 25.5875 32.7281 25.5375 32.775 25.475C32.9344 25.2656 33.0781 25.0562 33.225 24.85C33.3437 24.6812 33.4625 24.5187 33.575 24.35C33.7 24.1594 33.8094 23.9875 33.925 23.8C34.0375 23.6219 34.1469 23.4531 34.25 23.275C34.3469 23.1094 34.4344 22.9406 34.525 22.775C34.7031 22.4531 34.875 22.1375 35.025 21.825C35.0344 21.8094 35.0406 21.7906 35.05 21.775C35.1469 21.575 35.2375 21.3719 35.325 21.175C35.3844 21.0406 35.4437 20.9094 35.5 20.775C35.6219 20.4844 35.7219 20.2094 35.825 19.925C35.8375 19.8906 35.8625 19.8594 35.875 19.825C35.9469 19.6219 36.0125 19.425 36.075 19.225C36.1125 19.1031 36.1406 18.9937 36.175 18.875C36.1812 18.85 36.1937 18.825 36.2 18.8C36.2812 18.5094 36.3375 18.225 36.4 17.95C36.4687 17.6469 36.5281 17.3594 36.575 17.075C36.625 16.7812 36.6687 16.4937 36.7 16.225C36.7281 15.9656 36.7594 15.7344 36.775 15.5C36.7781 15.4656 36.7719 15.4344 36.775 15.4C36.7906 15.1344 36.8 14.8781 36.8 14.625C36.8 14.2906 36.7781 13.9844 36.75 13.675C36.7219 13.3719 36.6781 13.0781 36.625 12.8C36.5719 12.5187 36.5 12.2562 36.425 12C36.3906 11.8812 36.3656 11.7625 36.325 11.65C36.2781 11.5156 36.2281 11.3781 36.175 11.25C36.1437 11.1687 36.1094 11.1031 36.075 11.025C36.0094 10.875 35.9469 10.7375 35.875 10.6C35.8531 10.5562 35.825 10.5187 35.8 10.475C35.7094 10.3062 35.6219 10.1531 35.525 10C35.5187 9.99062 35.5062 9.98437 35.5 9.975C35.3844 9.79687 35.2719 9.60937 35.15 9.45C35.0219 9.28125 34.8812 9.12187 34.75 8.975C34.6656 8.87812 34.5844 8.8125 34.5 8.725C34.3125 8.53125 34.1562 8.35625 33.975 8.2C33.9312 8.1625 33.8937 8.1375 33.85 8.1C33.6375 7.92187 33.4344 7.75937 33.25 7.625C33.2406 7.61875 33.2344 7.63125 33.225 7.625C33.0375 7.49062 32.8656 7.36875 32.725 7.275C32.5812 7.17812 32.4656 7.10937 32.4 7.05C32.2875 6.95 32.1781 6.84062 32.075 6.725C32.0719 6.71875 32.0781 6.70625 32.075 6.7C31.9812 6.59375 31.8875 6.49062 31.8 6.375C31.7906 6.35937 31.7844 6.34062 31.775 6.325C31.5937 6.075 31.4219 5.80625 31.275 5.525C31.2687 5.51562 31.2562 5.50937 31.25 5.5C31.225 5.45312 31.225 5.39687 31.2 5.35C31.075 5.09687 30.9531 4.8375 30.85 4.575C30.7312 4.275 30.6125 3.9625 30.525 3.675C30.5219 3.66562 30.5281 3.65937 30.525 3.65C30.4344 3.35625 30.3625 3.08125 30.3 2.825C30.1125 2.05625 30.0281 1.51562 30.025 1.5L29.925 0.699997ZM30.625 9.225C31.0687 9.225 31.425 9.58437 31.425 10.025C31.425 13.75 30.3844 20.9094 23.35 27.05C19.2437 30.6344 16.8125 31.6875 13.725 33C11.275 34.0406 10.0094 34.2625 5.59999 37.05C5.46874 37.1344 5.29686 37.175 5.14999 37.175C5.09374 37.175 5.05624 37.1625 4.99999 37.15C4.99374 37.1469 4.98124 37.1531 4.97499 37.15C4.88749 37.1125 4.81249 37.0625 4.72499 37.025C4.63436 36.9656 4.53749 36.9 4.47499 36.8C4.23749 36.425 4.34999 35.9375 4.72499 35.7C9.24374 32.8437 10.5937 32.5906 13.1 31.525C16.0562 30.2687 18.3844 29.2656 22.3 25.85C28.8594 20.1281 29.825 13.475 29.825 10.025C29.825 9.58437 30.1812 9.225 30.625 9.225Z" fill="#907CFF"/>
</svg>
