<svg width="48" height="33" viewBox="0 0 48 33" fill="none" xmlns="http://www.w3.org/2000/svg">
<path d="M27.0454 0.523926H15.7774L17.8654 4.80792L8.90145 24.1399L8.97345 23.2759L12.3934 0.523926H5.26544L0.981445 32.2399H11.8894L27.0454 0.523926Z" fill="white"/>
<path d="M38.3852 32.2399H22.5092C22.3292 32.2399 22.1492 32.2039 22.0052 32.0599C21.8612 31.9519 21.7172 31.8079 21.5732 31.5919C21.4292 31.4119 21.3572 31.2319 21.2852 31.0159C21.2132 30.7999 21.1772 30.6199 21.1772 30.4039C21.1772 30.2599 21.1772 30.1879 21.2132 30.1519L24.8132 18.4519L30.0332 22.7719L28.9892 26.1199H33.6692L34.9652 21.9439L26.2892 13.5919L30.2852 0.523926H46.1612C46.3052 0.523926 46.4852 0.595925 46.6292 0.703926C46.7732 0.847924 46.9172 0.991924 47.0612 1.17192C47.2052 1.38793 47.3132 1.56793 47.3852 1.78392C47.4572 1.99992 47.4932 2.21593 47.4932 2.35993C47.4932 2.50392 47.4572 2.61192 47.4572 2.61192L44.1092 13.5919L38.8532 9.23593L39.6452 6.64392H35.0372L34.0652 9.77592L42.7052 18.1279L38.3852 32.2399Z" fill="white"/>
</svg>
