<?xml version="1.0" standalone="no"?>
<!DOCTYPE svg PUBLIC "-//W3C//DTD SVG 20010904//EN"
 "http://www.w3.org/TR/2001/REC-SVG-20010904/DTD/svg10.dtd">
<svg version="1.0" xmlns="http://www.w3.org/2000/svg"
 width="72.000000pt" height="72.000000pt" viewBox="0 0 72.000000 72.000000"
 preserveAspectRatio="xMidYMid meet">

<g transform="translate(0.000000,72.000000) scale(0.100000,-0.100000)"
fill="#000000" stroke="none">
<path d="M300 703 c-8 -3 -25 -15 -37 -26 -13 -11 -35 -22 -50 -23 -15 -2 -38
-12 -52 -22 -60 -44 -64 -116 -11 -167 30 -28 39 -68 20 -80 -13 -8 -13 -38 1
-52 7 -7 12 -33 12 -60 0 -26 3 -53 8 -59 5 -7 0 -19 -15 -33 -14 -13 -30 -36
-37 -52 -16 -39 4 -61 80 -90 116 -43 247 -34 332 24 43 30 43 67 -2 113 -29
30 -30 33 -12 43 10 6 14 11 8 11 -15 0 -10 87 6 106 10 12 10 20 1 35 -20 31
-14 73 12 98 59 55 58 129 -1 181 -32 28 -41 31 -88 28 -33 -2 -58 2 -68 10
-18 15 -84 25 -107 15z m107 -35 c10 -8 35 -12 69 -10 49 4 57 1 84 -26 42
-43 42 -101 0 -144 -16 -16 -30 -38 -30 -48 0 -15 -7 -17 -47 -13 -56 6 -71
16 -54 36 8 10 25 13 56 9 47 -5 57 5 28 29 -12 10 -50 14 -147 14 -143 -1
-186 -8 -186 -30 0 -22 -17 -18 -34 7 -18 26 -21 71 -6 99 11 20 60 49 84 49
8 0 32 12 53 26 30 20 46 25 76 21 21 -3 45 -11 54 -19z m-220 -303 c-7 -18 8
-29 26 -18 6 4 19 9 27 10 32 7 207 3 240 -5 35 -8 35 -9 38 -66 4 -57 3 -58
-20 -51 -12 4 -34 13 -48 20 -14 7 -54 13 -90 13 -36 0 -76 -6 -90 -13 -14 -7
-36 -16 -49 -20 -22 -7 -23 -6 -20 44 3 35 0 51 -8 51 -6 0 -15 5 -18 10 -7
12 0 40 11 40 3 0 4 -7 1 -15z m245 -151 c37 -4 65 -11 62 -16 -13 -20 -87
-48 -129 -48 -45 0 -105 19 -133 43 -13 10 -6 13 39 18 85 9 90 9 161 3z
m-195 -43 c13 -11 50 -25 81 -32 31 -7 63 -17 70 -22 19 -15 14 -41 -13 -67
-31 -29 -86 -25 -169 13 -65 30 -70 48 -30 96 30 37 29 36 61 12z m307 -12
c14 -17 26 -39 26 -50 0 -33 -65 -64 -169 -83 l-35 -6 22 23 c23 24 29 61 12
72 -18 11 -10 25 14 25 12 0 38 11 57 24 19 13 37 25 41 25 3 1 18 -13 32 -30z"/>
<path d="M285 340 c-3 -5 -1 -10 4 -10 6 0 11 -7 11 -15 0 -8 5 -15 10 -15 6
0 10 7 10 15 0 8 -5 15 -11 15 -5 0 -7 5 -4 10 3 6 2 10 -4 10 -5 0 -13 -4
-16 -10z"/>
<path d="M400 315 c0 -8 5 -15 10 -15 6 0 10 7 10 15 0 8 -4 15 -10 15 -5 0
-10 -7 -10 -15z"/>
</g>
</svg>
